<mxfile host="app.diagrams.net" agent="Mozilla/5.0 (Windows NT 10.0; Win64; x64) AppleWebKit/537.36 (KHTML, like Gecko) Chrome/126.0.0.0 Safari/537.36" version="24.7.6">
  <diagram name="第 1 页" id="7s9y1uXisQQvMmdgz3sL">
    <mxGraphModel dx="1147" dy="737" grid="1" gridSize="10" guides="1" tooltips="1" connect="1" arrows="1" fold="1" page="1" pageScale="1" pageWidth="827" pageHeight="1169" math="0" shadow="0">
      <root>
        <mxCell id="0" />
        <mxCell id="1" parent="0" />
        <mxCell id="IqStMQbmpdMdXCxV4kmI-25" value="" style="rounded=0;whiteSpace=wrap;html=1;fillColor=#f5f5f5;fontColor=#333333;strokeColor=#666666;" vertex="1" parent="1">
          <mxGeometry x="300" y="210" width="270" height="310" as="geometry" />
        </mxCell>
        <mxCell id="IqStMQbmpdMdXCxV4kmI-4" style="edgeStyle=orthogonalEdgeStyle;rounded=0;orthogonalLoop=1;jettySize=auto;html=1;exitX=0.5;exitY=1;exitDx=0;exitDy=0;exitPerimeter=0;entryX=0.5;entryY=0;entryDx=0;entryDy=0;" edge="1" parent="1" source="IqStMQbmpdMdXCxV4kmI-1" target="IqStMQbmpdMdXCxV4kmI-2">
          <mxGeometry relative="1" as="geometry" />
        </mxCell>
        <mxCell id="IqStMQbmpdMdXCxV4kmI-1" value="Sass下发删除布控请求" style="strokeWidth=2;html=1;shape=mxgraph.flowchart.start_1;whiteSpace=wrap;fillColor=#d5e8d4;strokeColor=#82b366;" vertex="1" parent="1">
          <mxGeometry x="350" y="20" width="100" height="60" as="geometry" />
        </mxCell>
        <mxCell id="IqStMQbmpdMdXCxV4kmI-8" style="edgeStyle=orthogonalEdgeStyle;rounded=0;orthogonalLoop=1;jettySize=auto;html=1;exitX=0.5;exitY=1;exitDx=0;exitDy=0;entryX=0.5;entryY=0;entryDx=0;entryDy=0;" edge="1" parent="1" source="IqStMQbmpdMdXCxV4kmI-2" target="IqStMQbmpdMdXCxV4kmI-7">
          <mxGeometry relative="1" as="geometry" />
        </mxCell>
        <mxCell id="IqStMQbmpdMdXCxV4kmI-9" value="Yes" style="edgeLabel;html=1;align=center;verticalAlign=middle;resizable=0;points=[];" vertex="1" connectable="0" parent="IqStMQbmpdMdXCxV4kmI-8">
          <mxGeometry x="-0.4667" relative="1" as="geometry">
            <mxPoint as="offset" />
          </mxGeometry>
        </mxCell>
        <mxCell id="IqStMQbmpdMdXCxV4kmI-2" value="查表，记&lt;div&gt;录是否存在&lt;/div&gt;" style="rhombus;whiteSpace=wrap;html=1;fillColor=#fff2cc;strokeColor=#d6b656;" vertex="1" parent="1">
          <mxGeometry x="360" y="110" width="80" height="80" as="geometry" />
        </mxCell>
        <mxCell id="IqStMQbmpdMdXCxV4kmI-3" value="返回成功" style="strokeWidth=2;html=1;shape=mxgraph.flowchart.start_1;whiteSpace=wrap;fillColor=#d5e8d4;strokeColor=#82b366;" vertex="1" parent="1">
          <mxGeometry x="480" y="130" width="80" height="40" as="geometry" />
        </mxCell>
        <mxCell id="IqStMQbmpdMdXCxV4kmI-5" style="edgeStyle=orthogonalEdgeStyle;rounded=0;orthogonalLoop=1;jettySize=auto;html=1;exitX=1;exitY=0.5;exitDx=0;exitDy=0;entryX=0;entryY=0.5;entryDx=0;entryDy=0;entryPerimeter=0;" edge="1" parent="1" source="IqStMQbmpdMdXCxV4kmI-2" target="IqStMQbmpdMdXCxV4kmI-3">
          <mxGeometry relative="1" as="geometry" />
        </mxCell>
        <mxCell id="IqStMQbmpdMdXCxV4kmI-6" value="No" style="edgeLabel;html=1;align=center;verticalAlign=middle;resizable=0;points=[];" vertex="1" connectable="0" parent="IqStMQbmpdMdXCxV4kmI-5">
          <mxGeometry x="-0.15" relative="1" as="geometry">
            <mxPoint as="offset" />
          </mxGeometry>
        </mxCell>
        <mxCell id="IqStMQbmpdMdXCxV4kmI-20" style="edgeStyle=orthogonalEdgeStyle;rounded=0;orthogonalLoop=1;jettySize=auto;html=1;exitX=0.5;exitY=1;exitDx=0;exitDy=0;entryX=0.5;entryY=0;entryDx=0;entryDy=0;" edge="1" parent="1" source="IqStMQbmpdMdXCxV4kmI-7" target="IqStMQbmpdMdXCxV4kmI-18">
          <mxGeometry relative="1" as="geometry" />
        </mxCell>
        <mxCell id="IqStMQbmpdMdXCxV4kmI-7" value="删MySQL，delete" style="rounded=0;whiteSpace=wrap;html=1;fillColor=#dae8fc;strokeColor=#6c8ebf;" vertex="1" parent="1">
          <mxGeometry x="345" y="220" width="110" height="40" as="geometry" />
        </mxCell>
        <mxCell id="IqStMQbmpdMdXCxV4kmI-15" style="edgeStyle=orthogonalEdgeStyle;rounded=0;orthogonalLoop=1;jettySize=auto;html=1;exitX=0.5;exitY=1;exitDx=0;exitDy=0;entryX=0.5;entryY=0;entryDx=0;entryDy=0;" edge="1" parent="1" source="IqStMQbmpdMdXCxV4kmI-11" target="IqStMQbmpdMdXCxV4kmI-13">
          <mxGeometry relative="1" as="geometry" />
        </mxCell>
        <mxCell id="IqStMQbmpdMdXCxV4kmI-11" value="删缓存KeyNode" style="rounded=0;whiteSpace=wrap;html=1;fillColor=#dae8fc;strokeColor=#6c8ebf;" vertex="1" parent="1">
          <mxGeometry x="340" y="380" width="120" height="40" as="geometry" />
        </mxCell>
        <mxCell id="IqStMQbmpdMdXCxV4kmI-13" value="组装Request参数，RPC下发删除布控信息到EX" style="rounded=0;whiteSpace=wrap;html=1;fillColor=#dae8fc;strokeColor=#6c8ebf;" vertex="1" parent="1">
          <mxGeometry x="330" y="450" width="140" height="50" as="geometry" />
        </mxCell>
        <mxCell id="IqStMQbmpdMdXCxV4kmI-16" value="返回成功" style="strokeWidth=2;html=1;shape=mxgraph.flowchart.start_1;whiteSpace=wrap;fillColor=#d5e8d4;strokeColor=#82b366;" vertex="1" parent="1">
          <mxGeometry x="360" y="530" width="80" height="40" as="geometry" />
        </mxCell>
        <mxCell id="IqStMQbmpdMdXCxV4kmI-17" style="edgeStyle=orthogonalEdgeStyle;rounded=0;orthogonalLoop=1;jettySize=auto;html=1;exitX=0.5;exitY=1;exitDx=0;exitDy=0;entryX=0.5;entryY=0;entryDx=0;entryDy=0;entryPerimeter=0;" edge="1" parent="1" source="IqStMQbmpdMdXCxV4kmI-13" target="IqStMQbmpdMdXCxV4kmI-16">
          <mxGeometry relative="1" as="geometry" />
        </mxCell>
        <mxCell id="IqStMQbmpdMdXCxV4kmI-23" style="edgeStyle=orthogonalEdgeStyle;rounded=0;orthogonalLoop=1;jettySize=auto;html=1;exitX=0.5;exitY=1;exitDx=0;exitDy=0;entryX=0.5;entryY=0;entryDx=0;entryDy=0;" edge="1" parent="1" source="IqStMQbmpdMdXCxV4kmI-18" target="IqStMQbmpdMdXCxV4kmI-11">
          <mxGeometry relative="1" as="geometry" />
        </mxCell>
        <mxCell id="IqStMQbmpdMdXCxV4kmI-24" value="Yes" style="edgeLabel;html=1;align=center;verticalAlign=middle;resizable=0;points=[];" vertex="1" connectable="0" parent="IqStMQbmpdMdXCxV4kmI-23">
          <mxGeometry x="-0.3333" relative="1" as="geometry">
            <mxPoint as="offset" />
          </mxGeometry>
        </mxCell>
        <mxCell id="IqStMQbmpdMdXCxV4kmI-18" value="删成功" style="rhombus;whiteSpace=wrap;html=1;fillColor=#fff2cc;strokeColor=#d6b656;" vertex="1" parent="1">
          <mxGeometry x="360" y="280" width="80" height="70" as="geometry" />
        </mxCell>
        <mxCell id="IqStMQbmpdMdXCxV4kmI-19" value="抛异常" style="strokeWidth=2;html=1;shape=mxgraph.flowchart.start_1;whiteSpace=wrap;fillColor=#f8cecc;strokeColor=#b85450;" vertex="1" parent="1">
          <mxGeometry x="480" y="295" width="80" height="40" as="geometry" />
        </mxCell>
        <mxCell id="IqStMQbmpdMdXCxV4kmI-21" style="edgeStyle=orthogonalEdgeStyle;rounded=0;orthogonalLoop=1;jettySize=auto;html=1;exitX=1;exitY=0.5;exitDx=0;exitDy=0;entryX=0;entryY=0.5;entryDx=0;entryDy=0;entryPerimeter=0;" edge="1" parent="1" source="IqStMQbmpdMdXCxV4kmI-18" target="IqStMQbmpdMdXCxV4kmI-19">
          <mxGeometry relative="1" as="geometry" />
        </mxCell>
        <mxCell id="IqStMQbmpdMdXCxV4kmI-22" value="No" style="edgeLabel;html=1;align=center;verticalAlign=middle;resizable=0;points=[];" vertex="1" connectable="0" parent="IqStMQbmpdMdXCxV4kmI-21">
          <mxGeometry x="-0.1" y="-1" relative="1" as="geometry">
            <mxPoint as="offset" />
          </mxGeometry>
        </mxCell>
        <mxCell id="IqStMQbmpdMdXCxV4kmI-26" value="有异常就回滚" style="text;html=1;align=center;verticalAlign=middle;whiteSpace=wrap;rounded=0;strokeColor=#9673a6;dashed=1;fillColor=#e1d5e7;" vertex="1" parent="1">
          <mxGeometry x="520" y="350" width="90" height="30" as="geometry" />
        </mxCell>
      </root>
    </mxGraphModel>
  </diagram>
</mxfile>
